# xmcd
#
# Track frame offsets:
#	150
#	23017
#	43293
#	62817
#	85947
#	104398
#	124731
#	145219
#	169824
#	189689
#	215825
#	235970
#
# Disc length: 3383 seconds
#
# Revision: 4
# Processed by: cddbd v1.5.2PL0 Copyright (c) Steve Scherf et al.
# Submitted via: EasyCDDAExtractor 2011.3.0.0
#
DISCID=b20d350c
DTITLE=群星 - 风云再起 DTS ES6.1
DYEAR=2007
DGENRE=DTS
TTITLE0=01 你还要什么
TTITLE1=02 花祭
TTITLE2=03 芳草碧连天
TTITLE3=04 火柴天堂
TTITLE4=05 哎呀
TTITLE5=06 杀破狼
TTITLE6=07 蓝色
TTITLE7=08 十二种颜色
TTITLE8=09 花瓣雨
TTITLE9=10 下雨的时候会想你
TTITLE10=11 美错
TTITLE11=12 不再问
EXTD=
EXTT0=
EXTT1=
EXTT2=
EXTT3=
EXTT4=
EXTT5=
EXTT6=
EXTT7=
EXTT8=
EXTT9=
EXTT10=
EXTT11=
PLAYORDER=
